<?xml version="1.0" encoding="utf-8"?>
<!-- Generator: Adobe Illustrator 19.0.0, SVG Export Plug-In . SVG Version: 6.00 Build 0)  -->
<svg version="1.1" id="Layer_1" xmlns="http://www.w3.org/2000/svg" xmlns:xlink="http://www.w3.org/1999/xlink" x="0px" y="0px"
	 viewBox="-9 57 231.1 32" style="enable-background:new -9 57 231.1 32;" xml:space="preserve">
<style type="text/css">
	.st0{fill:#FFFFFF;}
</style>
<g id="Photo_x5F_Camera">
	<g id="XMLID_336_">
		<path id="XMLID_343_" class="st0" d="M71,61h-6.4l-1.7-3.4C62.7,57.2,62.4,57,62,57h-8c-0.4,0-0.7,0.2-0.9,0.6L51.4,61H45
			c-1.7,0-3,1.3-3,3v22c0,1.7,1.3,3,3,3h26c1.7,0,3-1.3,3-3V64C74,62.3,72.7,61,71,61z M44,72h5.9c-0.6,1.2-0.9,2.6-0.9,4
			s0.3,2.8,0.9,4H44V72z M72,86c0,0.6-0.4,1-1,1H45c-0.6,0-1-0.4-1-1v-4h7c0.1,0,0.2,0,0.3-0.1C53,83.8,55.4,85,58,85
			c2.7,0,5.1-1.2,6.7-3.1c0.1,0,0.2,0.1,0.3,0.1h7V86z M51,76c0-3.9,3.1-7,7-7s7,3.1,7,7s-3.1,7-7,7S51,79.9,51,76z M72,80h-5.9
			c0.6-1.2,0.9-2.6,0.9-4s-0.3-2.8-0.9-4H72V80z M72,70h-7c-0.1,0-0.2,0-0.3,0.1c-1.6-1.9-4-3.1-6.7-3.1s-5.1,1.2-6.7,3.1
			C51.2,70,51.1,70,51,70h-7v-6c0-0.6,0.4-1,1-1h7c0.4,0,0.7-0.2,0.9-0.6l1.7-3.4h6.8l1.7,3.4c0.2,0.4,0.5,0.6,0.9,0.6h7
			c0.6,0,1,0.4,1,1V70z M58,73c1.7,0,3,1.3,3,3c0,0.6,0.4,1,1,1s1-0.4,1-1c0-2.8-2.2-5-5-5c-0.6,0-1,0.4-1,1S57.4,73,58,73z"/>
	</g>
</g>
<g id="Statics">
	<g id="XMLID_408_">
		<path id="XMLID_409_" class="st0" d="M221.9,58.5c0.3-0.5,0.2-1.1-0.3-1.4c-0.5-0.3-1.1-0.2-1.4,0.3l-3.6,5.6c-0.2,0-0.3,0-0.5,0
			c-1.6,0-3,1.3-3,3c0,0.3,0.1,0.6,0.2,0.9l-3.6,4.5c-0.5-0.3-1-0.5-1.6-0.5c-1.6,0-2.9,1.3-3,2.9l-5.6,3.3
			c-0.5-0.7-1.4-1.2-2.3-1.2c-1.6,0-3,1.3-3,3c0,0.6,0.2,1.2,0.6,1.7l-4.4,6.7c-0.3,0.5-0.2,1.1,0.3,1.4c0.2,0.1,0.4,0.2,0.5,0.2
			c0.3,0,0.6-0.2,0.8-0.4l4.4-6.6c0.3,0.1,0.5,0.1,0.8,0.1c1.6,0,2.9-1.3,3-2.9l5.6-3.3c0.5,0.7,1.4,1.2,2.3,1.2c1.6,0,3-1.3,3-3
			c0-0.3-0.1-0.6-0.2-0.9l3.6-4.5c0.5,0.3,1,0.5,1.6,0.5c1.6,0,3-1.3,3-3c0-0.8-0.3-1.5-0.8-2L221.9,58.5z M197.2,79.9
			c-0.5,0-1-0.4-1-1c0-0.5,0.4-1,1-1c0.5,0,1,0.4,1,1C198.2,79.4,197.8,79.9,197.2,79.9z M208.1,74.9c-0.5,0-1-0.4-1-1
			c0-0.5,0.4-1,1-1c0.5,0,1,0.4,1,1S208.7,74.9,208.1,74.9z M216.1,66.9c-0.5,0-1-0.4-1-1c0-0.5,0.4-1,1-1c0.5,0,1,0.4,1,1
			S216.7,66.9,216.1,66.9z M196.2,86.8c-0.5,0-1,0.4-1,1c0,0.5,0.4,1,1,1s1-0.4,1-1C197.2,87.3,196.8,86.8,196.2,86.8z M201.2,86.8
			c-0.5,0-1,0.4-1,1c0,0.5,0.4,1,1,1s1-0.4,1-1C202.2,87.3,201.7,86.8,201.2,86.8z M206.2,86.8c-0.5,0-1,0.4-1,1c0,0.5,0.4,1,1,1
			s1-0.4,1-1C207.2,87.3,206.7,86.8,206.2,86.8z M211.1,86.8c-0.5,0-1,0.4-1,1c0,0.5,0.4,1,1,1s1-0.4,1-1
			C212.1,87.3,211.7,86.8,211.1,86.8z M216.1,86.8c-0.5,0-1,0.4-1,1c0,0.5,0.4,1,1,1s1-0.4,1-1C217.1,87.3,216.7,86.8,216.1,86.8z
			 M221.1,86.8c-0.5,0-1,0.4-1,1c0,0.5,0.4,1,1,1s1-0.4,1-1C222.1,87.3,221.6,86.8,221.1,86.8z M191.2,83.9c0.5,0,1-0.4,1-1
			c0-0.5-0.4-1-1-1s-1,0.4-1,1C190.2,83.4,190.7,83.9,191.2,83.9z M191.2,78.9c0.5,0,1-0.4,1-1c0-0.5-0.4-1-1-1s-1,0.4-1,1
			C190.2,78.4,190.7,78.9,191.2,78.9z M191.2,73.9c0.5,0,1-0.4,1-1c0-0.5-0.4-1-1-1s-1,0.4-1,1S190.7,73.9,191.2,73.9z M191.2,68.9
			c0.5,0,1-0.4,1-1c0-0.5-0.4-1-1-1s-1,0.4-1,1S190.7,68.9,191.2,68.9z M191.2,64c0.5,0,1-0.4,1-1c0-0.5-0.4-1-1-1s-1,0.4-1,1
			C190.2,63.5,190.7,64,191.2,64z M191.2,59c0.5,0,1-0.4,1-1c0-0.5-0.4-1-1-1s-1,0.4-1,1C190.2,58.5,190.7,59,191.2,59z"/>
	</g>
</g>
<g id="XMLID_197_">
	<g id="XMLID_198_">
		<g id="XMLID_233_">
			<path id="XMLID_234_" class="st0" d="M107.3,81.6c-3.3,0-6-2.7-6-6V63c0-3.3,2.7-6,6-6s6,2.7,6,6v12.5
				C113.3,78.9,110.6,81.6,107.3,81.6z M107.3,58.9c-2.3,0-4.1,1.8-4.1,4.1v12.5c0,2.3,1.8,4.1,4.1,4.1c2.3,0,4.1-1.8,4.1-4.1V63
				C111.4,60.8,109.6,58.9,107.3,58.9z"/>
		</g>
		<g id="XMLID_205_">
			<g id="XMLID_231_">
				<path id="XMLID_232_" class="st0" d="M104.6,67.1c-0.3,0-0.5-0.2-0.5-0.5v-4.1c0-1.3,0.8-2.2,2.3-2.2h0.4c0.3,0,0.5,0.2,0.5,0.5
					s-0.2,0.5-0.5,0.5h-0.4c-0.4,0-1.4,0.1-1.4,1.2v4.1C105.1,66.9,104.9,67.1,104.6,67.1z"/>
			</g>
			<g id="XMLID_206_">
				<path id="XMLID_207_" class="st0" d="M104.6,69.1c-0.3,0-0.5-0.2-0.5-0.5v-0.5c0-0.3,0.2-0.5,0.5-0.5s0.5,0.2,0.5,0.5v0.5
					C105.1,68.8,104.9,69.1,104.6,69.1z"/>
			</g>
		</g>
		<g id="XMLID_203_">
			<path id="XMLID_204_" class="st0" d="M107.3,85.5L107.3,85.5c-5.8,0-10.4-4.8-10.4-10.5v-0.6c0-0.5,0.4-1,1-1s1,0.4,1,1V75
				c0,4.6,3.8,8.6,8.4,8.6h0.1c4.5,0,8.4-3.9,8.4-8.6v-0.6c0-0.5,0.4-1,1-1s1,0.4,1,1V75C117.7,80.7,112.9,85.5,107.3,85.5z"/>
		</g>
		<g id="XMLID_201_">
			<path id="XMLID_202_" class="st0" d="M111.2,88.8H103c-0.5,0-1-0.4-1-1c0-0.5,0.4-1,1-1h8.2c0.5,0,1,0.4,1,1
				C112.2,88.4,111.7,88.8,111.2,88.8z"/>
		</g>
		<g id="XMLID_199_">
			<path id="XMLID_200_" class="st0" d="M107.1,87.9c-0.5,0-1-0.4-1-1v-2.4c0-0.5,0.4-1,1-1s1,0.4,1,1v2.4
				C108,87.4,107.6,87.9,107.1,87.9z"/>
		</g>
	</g>
</g>
<g id="Desktop">
	<g id="XMLID_292_">
		<path id="XMLID_293_" class="st0" d="M162.2,86.9h-2c-1.1,0-2-0.9-2-2v-3h-6v3c0,1.1-0.9,2-2,2h-2c-0.6,0-1,0.4-1,1s0.4,1,1,1h14
			c0.6,0,1-0.4,1-1C163.2,87.4,162.7,86.9,162.2,86.9z M169.4,56.9h-28.5c-1,0-1.8,0.8-1.8,1.9V78c0,1,0.8,1.9,1.8,1.9h28.5
			c1,0,1.8-0.8,1.8-1.9V58.8C171.2,57.8,170.4,56.9,169.4,56.9z M169.2,77.9h-28v-19h28V77.9z"/>
	</g>
</g>
<g id="Pencil">
	<g id="XMLID_326_">
		<path id="XMLID_327_" class="st0" d="M21.3,58.6c-1.1-1.1-2.6-1.7-4.2-1.7s-3,0.6-4.2,1.7L-4.7,76.2c-0.1,0.1-0.2,0.2-0.2,0.4
			l-4,11c-0.1,0.4,0,0.8,0.2,1c0.2,0.2,0.5,0.3,0.7,0.3c0.1,0,0.2,0,0.3,0l9.9-3.1c0.2,0,0.3-0.1,0.4-0.2l18.7-18.7
			c1.1-1.1,1.7-2.5,1.7-4.1C23,61.2,22.4,59.7,21.3,58.6z M1.1,84.1l-3.7,1.1c-0.2-0.6-0.6-1.2-1-1.7c-0.4-0.4-0.9-0.7-1.4-1
			l1.7-4.7H-1v2c0,0.6,0.4,1,1,1h1.8L1.1,84.1z M15.8,69.6L3.6,81.8l0.3-1.6c0.1-0.3,0-0.6-0.2-0.8C3.5,79.2,3.2,79,2.9,79h-2v-2
			c0-0.6-0.4-1-1-1h-1.5l11.9-11.9l0,0c0.8-0.7,1.7-1.1,2.8-1.1c1,0,2,0.4,2.7,1.1c0.7,0.7,1.1,1.7,1.1,2.7
			C16.9,67.9,16.5,68.9,15.8,69.6z M19.9,65.5L19,66.4c-0.1-1.4-0.7-2.8-1.7-3.8s-2.4-1.6-3.8-1.7l0.9-0.9l0,0
			c0.7-0.7,1.7-1.1,2.7-1.1s2,0.4,2.7,1.1c0.8,0.8,1.2,1.8,1.2,2.8S20.6,64.8,19.9,65.5z M13.3,65.2l-10,10c-0.4,0.4-0.4,1,0,1.4
			c0.2,0.2,0.5,0.3,0.7,0.3c0.3,0,0.5-0.1,0.7-0.3l10-10c0.4-0.4,0.4-1,0-1.4C14.3,64.8,13.7,64.8,13.3,65.2z"/>
	</g>
</g>
</svg>
